<svg width="11" height="11" viewBox="0 0 11 11" fill="none" xmlns="http://www.w3.org/2000/svg">
<g clip-path="url(#clip0_57_23443)">
<path d="M5.44075 5.75975C5.46028 5.68813 5.44726 5.60675 5.40168 5.5156C5.36262 5.44399 5.30728 5.36912 5.23567 5.291L1.24153 1.30662C1.13736 1.20245 1.01366 1.15037 0.870435 1.15037C0.727205 1.15037 0.605135 1.20245 0.504224 1.30662C0.403312 1.41079 0.352856 1.53448 0.352856 1.67771C0.352856 1.82094 0.401685 1.94464 0.499341 2.04881L4.30793 5.74998L0.499341 9.46092C0.408195 9.54555 0.356112 9.64972 0.343091 9.77342C0.33007 9.89712 0.357739 10.0127 0.426099 10.1201C0.494458 10.2275 0.590487 10.2975 0.714185 10.3301C0.837882 10.3626 0.95507 10.3561 1.06575 10.3105C1.13085 10.2845 1.18944 10.2454 1.24153 10.1933L5.23567 6.20896C5.30728 6.13084 5.35937 6.06248 5.39192 6.00389C5.43749 5.91274 5.45377 5.83136 5.44075 5.75975ZM10.1282 5.291L6.13411 1.30662C6.02994 1.20245 5.90624 1.15037 5.76301 1.15037C5.61978 1.15037 5.49771 1.20245 5.3968 1.30662C5.29589 1.41079 5.24543 1.53448 5.24543 1.67771C5.24543 1.82094 5.29426 1.94464 5.39192 2.04881L9.20051 5.75975L5.39192 9.45115C5.30077 9.5423 5.24869 9.64972 5.23567 9.77342C5.22265 9.89712 5.25195 10.011 5.32356 10.1152C5.39517 10.2194 5.4912 10.2894 5.61165 10.3252C5.73209 10.361 5.84765 10.3561 5.95833 10.3105C6.02343 10.2845 6.07877 10.2454 6.12434 10.1933L10.1282 6.21873C10.1999 6.12758 10.2519 6.05597 10.2845 6.00389C10.3301 5.91925 10.3463 5.83787 10.3333 5.75975C10.3659 5.62303 10.2975 5.46678 10.1282 5.291Z" fill="#3E5765"/>
</g>
<defs>
<clipPath id="clip0_57_23443">
<rect width="10" height="10.5" fill="white" transform="matrix(1 0 0 -1 0.339966 11)"/>
</clipPath>
</defs>
</svg>
